<mxfile host="app.diagrams.net" modified="2023-12-07T21:58:19.645Z" agent="Mozilla/5.0 (Windows NT 10.0; Win64; x64) AppleWebKit/537.36 (KHTML, like Gecko) Chrome/119.0.0.0 Safari/537.36" etag="DVzq9sir_JY4nJqA5hCL" version="22.1.7" type="device">
  <diagram name="Strona-1" id="RjiDzJb0R5LnKMGNWe8H">
    <mxGraphModel dx="1245" dy="1334" grid="0" gridSize="10" guides="1" tooltips="1" connect="1" arrows="1" fold="1" page="0" pageScale="1" pageWidth="827" pageHeight="1169" math="0" shadow="0">
      <root>
        <mxCell id="0" />
        <mxCell id="1" parent="0" />
        <mxCell id="KYr4lqLNj4o3VlbPgVIE-5" value="User" style="swimlane;childLayout=stackLayout;horizontal=1;startSize=50;horizontalStack=0;rounded=1;fontSize=14;fontStyle=0;strokeWidth=2;resizeParent=0;resizeLast=1;shadow=0;dashed=0;align=center;arcSize=4;whiteSpace=wrap;html=1;" vertex="1" parent="1">
          <mxGeometry x="559" y="-25" width="84" height="174" as="geometry" />
        </mxCell>
        <mxCell id="KYr4lqLNj4o3VlbPgVIE-6" value="Name&lt;br&gt;Email&lt;br&gt;Password" style="align=left;strokeColor=none;fillColor=none;spacingLeft=4;fontSize=12;verticalAlign=top;resizable=0;rotatable=0;part=1;html=1;" vertex="1" parent="KYr4lqLNj4o3VlbPgVIE-5">
          <mxGeometry y="50" width="84" height="124" as="geometry" />
        </mxCell>
        <mxCell id="KYr4lqLNj4o3VlbPgVIE-9" value="Place" style="swimlane;childLayout=stackLayout;horizontal=1;startSize=50;horizontalStack=0;rounded=1;fontSize=14;fontStyle=0;strokeWidth=2;resizeParent=0;resizeLast=1;shadow=0;dashed=0;align=center;arcSize=4;whiteSpace=wrap;html=1;" vertex="1" parent="1">
          <mxGeometry x="161" y="-29" width="93" height="174" as="geometry" />
        </mxCell>
        <mxCell id="KYr4lqLNj4o3VlbPgVIE-10" value="Name&lt;br&gt;Coordinates&lt;br&gt;Score&lt;br&gt;Comment&lt;br&gt;PhotoPack&lt;br&gt;City" style="align=left;strokeColor=none;fillColor=none;spacingLeft=4;fontSize=12;verticalAlign=top;resizable=0;rotatable=0;part=1;html=1;" vertex="1" parent="KYr4lqLNj4o3VlbPgVIE-9">
          <mxGeometry y="50" width="93" height="124" as="geometry" />
        </mxCell>
        <mxCell id="KYr4lqLNj4o3VlbPgVIE-11" value="Comment" style="swimlane;childLayout=stackLayout;horizontal=1;startSize=50;horizontalStack=0;rounded=1;fontSize=14;fontStyle=0;strokeWidth=2;resizeParent=0;resizeLast=1;shadow=0;dashed=0;align=center;arcSize=4;whiteSpace=wrap;html=1;" vertex="1" parent="1">
          <mxGeometry x="353" y="-29" width="93" height="174" as="geometry" />
        </mxCell>
        <mxCell id="KYr4lqLNj4o3VlbPgVIE-12" value="Name&lt;br&gt;Score&lt;br&gt;Text&lt;br&gt;Like&lt;br&gt;Dislike" style="align=left;strokeColor=none;fillColor=none;spacingLeft=4;fontSize=12;verticalAlign=top;resizable=0;rotatable=0;part=1;html=1;" vertex="1" parent="KYr4lqLNj4o3VlbPgVIE-11">
          <mxGeometry y="50" width="93" height="124" as="geometry" />
        </mxCell>
        <mxCell id="KYr4lqLNj4o3VlbPgVIE-13" value="PhotoPack" style="swimlane;childLayout=stackLayout;horizontal=1;startSize=50;horizontalStack=0;rounded=1;fontSize=14;fontStyle=0;strokeWidth=2;resizeParent=0;resizeLast=1;shadow=0;dashed=0;align=center;arcSize=4;whiteSpace=wrap;html=1;" vertex="1" parent="1">
          <mxGeometry x="272" y="188" width="93" height="110" as="geometry" />
        </mxCell>
        <mxCell id="KYr4lqLNj4o3VlbPgVIE-14" value="Name&lt;br&gt;Photo" style="align=left;strokeColor=none;fillColor=none;spacingLeft=4;fontSize=12;verticalAlign=top;resizable=0;rotatable=0;part=1;html=1;" vertex="1" parent="KYr4lqLNj4o3VlbPgVIE-13">
          <mxGeometry y="50" width="93" height="60" as="geometry" />
        </mxCell>
        <mxCell id="KYr4lqLNj4o3VlbPgVIE-17" value="City" style="swimlane;childLayout=stackLayout;horizontal=1;startSize=50;horizontalStack=0;rounded=1;fontSize=14;fontStyle=0;strokeWidth=2;resizeParent=0;resizeLast=1;shadow=0;dashed=0;align=center;arcSize=4;whiteSpace=wrap;html=1;" vertex="1" parent="1">
          <mxGeometry x="-56" y="-37" width="93" height="174" as="geometry" />
        </mxCell>
        <mxCell id="KYr4lqLNj4o3VlbPgVIE-18" value="Name&lt;br&gt;Coordinates&lt;br&gt;Photo&lt;br&gt;Place&lt;br&gt;Forecast" style="align=left;strokeColor=none;fillColor=none;spacingLeft=4;fontSize=12;verticalAlign=top;resizable=0;rotatable=0;part=1;html=1;" vertex="1" parent="KYr4lqLNj4o3VlbPgVIE-17">
          <mxGeometry y="50" width="93" height="124" as="geometry" />
        </mxCell>
        <mxCell id="KYr4lqLNj4o3VlbPgVIE-22" value="Forecast" style="swimlane;childLayout=stackLayout;horizontal=1;startSize=50;horizontalStack=0;rounded=1;fontSize=14;fontStyle=0;strokeWidth=2;resizeParent=0;resizeLast=1;shadow=0;dashed=0;align=center;arcSize=4;whiteSpace=wrap;html=1;" vertex="1" parent="1">
          <mxGeometry x="60" y="176" width="84" height="116" as="geometry" />
        </mxCell>
        <mxCell id="KYr4lqLNj4o3VlbPgVIE-23" value="Temperature&lt;br&gt;Coordinate&lt;br&gt;?" style="align=left;strokeColor=none;fillColor=none;spacingLeft=4;fontSize=12;verticalAlign=top;resizable=0;rotatable=0;part=1;html=1;" vertex="1" parent="KYr4lqLNj4o3VlbPgVIE-22">
          <mxGeometry y="50" width="84" height="66" as="geometry" />
        </mxCell>
        <mxCell id="KYr4lqLNj4o3VlbPgVIE-26" value="Report" style="swimlane;childLayout=stackLayout;horizontal=1;startSize=50;horizontalStack=0;rounded=1;fontSize=14;fontStyle=0;strokeWidth=2;resizeParent=0;resizeLast=1;shadow=0;dashed=0;align=center;arcSize=4;whiteSpace=wrap;html=1;" vertex="1" parent="1">
          <mxGeometry x="441" y="188" width="84" height="116" as="geometry" />
        </mxCell>
        <mxCell id="KYr4lqLNj4o3VlbPgVIE-27" value="Name&lt;br&gt;Email&lt;br&gt;Text" style="align=left;strokeColor=none;fillColor=none;spacingLeft=4;fontSize=12;verticalAlign=top;resizable=0;rotatable=0;part=1;html=1;" vertex="1" parent="KYr4lqLNj4o3VlbPgVIE-26">
          <mxGeometry y="50" width="84" height="66" as="geometry" />
        </mxCell>
        <mxCell id="KYr4lqLNj4o3VlbPgVIE-28" value="" style="edgeStyle=entityRelationEdgeStyle;fontSize=12;html=1;endArrow=ERzeroToMany;endFill=1;rounded=0;startSize=8;endSize=8;curved=1;exitX=0.989;exitY=0.331;exitDx=0;exitDy=0;exitPerimeter=0;entryX=0;entryY=0.25;entryDx=0;entryDy=0;" edge="1" parent="1" source="KYr4lqLNj4o3VlbPgVIE-18" target="KYr4lqLNj4o3VlbPgVIE-10">
          <mxGeometry width="100" height="100" relative="1" as="geometry">
            <mxPoint x="153" y="250" as="sourcePoint" />
            <mxPoint x="253" y="150" as="targetPoint" />
          </mxGeometry>
        </mxCell>
        <mxCell id="KYr4lqLNj4o3VlbPgVIE-29" value="" style="edgeStyle=entityRelationEdgeStyle;fontSize=12;html=1;endArrow=ERzeroToMany;endFill=1;rounded=0;startSize=8;endSize=8;curved=1;exitX=1;exitY=0.25;exitDx=0;exitDy=0;entryX=0;entryY=0.25;entryDx=0;entryDy=0;" edge="1" parent="1" source="KYr4lqLNj4o3VlbPgVIE-10" target="KYr4lqLNj4o3VlbPgVIE-12">
          <mxGeometry width="100" height="100" relative="1" as="geometry">
            <mxPoint x="266" y="150" as="sourcePoint" />
            <mxPoint x="316" y="124" as="targetPoint" />
          </mxGeometry>
        </mxCell>
        <mxCell id="KYr4lqLNj4o3VlbPgVIE-37" value="" style="edgeStyle=entityRelationEdgeStyle;fontSize=12;html=1;endArrow=ERzeroToMany;endFill=1;rounded=0;startSize=8;endSize=8;curved=1;entryX=1.011;entryY=0.347;entryDx=0;entryDy=0;entryPerimeter=0;exitX=0;exitY=0.5;exitDx=0;exitDy=0;" edge="1" parent="1" source="KYr4lqLNj4o3VlbPgVIE-5" target="KYr4lqLNj4o3VlbPgVIE-12">
          <mxGeometry width="100" height="100" relative="1" as="geometry">
            <mxPoint x="560" y="279" as="sourcePoint" />
            <mxPoint x="577" y="50" as="targetPoint" />
          </mxGeometry>
        </mxCell>
        <mxCell id="KYr4lqLNj4o3VlbPgVIE-38" value="" style="edgeStyle=entityRelationEdgeStyle;fontSize=12;html=1;endArrow=ERzeroToMany;endFill=1;rounded=0;startSize=8;endSize=8;curved=1;exitX=0.5;exitY=1;exitDx=0;exitDy=0;entryX=0;entryY=0;entryDx=0;entryDy=0;" edge="1" parent="1" source="KYr4lqLNj4o3VlbPgVIE-10" target="KYr4lqLNj4o3VlbPgVIE-14">
          <mxGeometry width="100" height="100" relative="1" as="geometry">
            <mxPoint x="297" y="150" as="sourcePoint" />
            <mxPoint x="397" y="50" as="targetPoint" />
          </mxGeometry>
        </mxCell>
        <mxCell id="KYr4lqLNj4o3VlbPgVIE-39" value="" style="edgeStyle=entityRelationEdgeStyle;fontSize=12;html=1;endArrow=ERzeroToMany;endFill=1;rounded=0;startSize=8;endSize=8;curved=1;exitX=0.583;exitY=0.992;exitDx=0;exitDy=0;entryX=1;entryY=0.25;entryDx=0;entryDy=0;exitPerimeter=0;" edge="1" parent="1" source="KYr4lqLNj4o3VlbPgVIE-6" target="KYr4lqLNj4o3VlbPgVIE-27">
          <mxGeometry width="100" height="100" relative="1" as="geometry">
            <mxPoint x="505" y="150" as="sourcePoint" />
            <mxPoint x="733" y="283" as="targetPoint" />
          </mxGeometry>
        </mxCell>
        <mxCell id="KYr4lqLNj4o3VlbPgVIE-40" value="" style="edgeStyle=entityRelationEdgeStyle;fontSize=12;html=1;endArrow=ERzeroToMany;endFill=1;rounded=0;startSize=8;endSize=8;curved=1;exitX=0.5;exitY=1;exitDx=0;exitDy=0;entryX=-0.024;entryY=0.167;entryDx=0;entryDy=0;entryPerimeter=0;" edge="1" parent="1" source="KYr4lqLNj4o3VlbPgVIE-18" target="KYr4lqLNj4o3VlbPgVIE-23">
          <mxGeometry width="100" height="100" relative="1" as="geometry">
            <mxPoint x="234" y="150" as="sourcePoint" />
            <mxPoint x="334" y="50" as="targetPoint" />
          </mxGeometry>
        </mxCell>
      </root>
    </mxGraphModel>
  </diagram>
</mxfile>
